<?xml version="1.0" encoding="UTF-8"?>
<svg width="1200pt" fill = "#FFFFFF" height="1200pt" version="1.1" viewBox="0 0 1200 1200" xmlns="http://www.w3.org/2000/svg">
 <path d="m425.48 314.2h349.05l100.28-143.63-274.81-89.277-274.79 89.277zm404.72 39.871 108.03 332.45 160.39 46.574v-289.55l-168.73-232.25zm-230.2 544.1 271.02-196.89-103.52-318.6h-334.99l-103.52 318.6 271.01 196.89zm34.242 59.77v160.77l273.93-89.008 168.35-231.72-158.7-46.078-283.58 206.04zm-68.473 0-283.58-206.04-158.7 46.078 168.35 231.72 273.93 89.008v-160.77zm-195.96-603.87-99.68-142.77-168.73 232.25v289.55l160.39-46.574z" fill-rule="evenodd"/>
</svg>
