<?xml version="1.0" encoding="utf-8"?>
<svg viewBox="-15 15 550 550" xmlns="http://www.w3.org/2000/svg">
  <path opacity="1.000000" stroke="none" d="M 276.087 20.481 C 295.468 40.38 313.8 59.526 332.359 78.512 C 365.953 112.874 399.525 147.253 433.414 181.4 C 452.209 200.337 471.101 219.248 490.982 237.327 C 500.711 246.175 500.872 251.945 491.363 261.429 C 443.648 309.033 396.934 357.38 349.78 405.398 C 321.633 434.061 293.325 462.602 265.092 491.201 C 256.864 499.538 248.698 499.579 240.257 491.336 C 219.89 471.45 199.125 451.857 179.072 431.736 C 153.105 405.688 127.84 379.118 101.963 352.999 C 70.852 321.596 39.359 290.472 8.233 259.082 C 5.564 256.393 4.38 252.614 1.901 248.281 C 39.77 210.349 77.979 172.439 115.71 134.176 C 155.024 94.31 194.025 54.213 232.853 13.997 C 248.784 -2.505 249.408 -2.637 276.087 20.481 M 362.791 133.764 C 329.746 100.778 296.704 67.789 261.389 32.539 C 261.389 126.466 261.389 216.502 261.389 307.592 C 332.688 287.063 402.478 266.968 473.557 246.5 C 435.912 208.094 400.294 171.754 362.791 133.764 M 74.585 259.419 C 129.625 275.488 184.665 291.556 240.018 307.718 C 240.018 215.987 240.018 125.958 240.018 33.343 C 168.536 105.432 99.129 175.421 28.54 246.609 C 44.217 251.173 57.904 255.158 74.585 259.419 M 94.996 280.769 C 76.101 275.285 57.202 269.798 33.158 262.822 C 105.084 335.252 173.016 403.661 244.804 475.953 C 244.804 423.911 245.047 377.041 244.285 330.183 C 244.233 326.87 237.438 322.046 232.693 320.634 C 187.868 307.29 142.808 294.531 94.996 280.769 M 461.464 265.704 C 397.196 283.972 332.833 302.015 268.837 320.969 C 264.151 322.355 259.458 330.231 259.249 335.226 C 258.256 359.287 258.801 383.393 258.801 407.482 C 258.801 428.526 258.801 449.57 258.801 475.194 C 292.653 441.102 322.91 410.898 352.819 380.443 C 390.042 342.54 426.982 304.431 461.464 265.704 Z" style="fill: rgb(0, 0, 255);" transform="matrix(0.9999999999999999, 0, 0, 0.9999999999999999, 0, 0)"/>
  <path opacity="1.000000" stroke="none" d="M 363.736 134.59 C 400.294 171.754 435.912 208.094 473.557 246.5 C 402.478 266.968 332.688 287.063 261.389 307.592 C 261.389 216.502 261.389 126.466 261.389 32.539 C 296.704 67.789 329.746 100.778 363.736 134.59 Z" style="fill: rgb(255, 255, 255);" transform="matrix(0.9999999999999999, 0, 0, 0.9999999999999999, 0, 0)"/>
  <path opacity="1.000000" stroke="none" d="M 73.088 259.281 C 57.904 255.158 44.217 251.173 28.54 246.609 C 99.129 175.421 168.536 105.432 240.018 33.343 C 240.018 125.958 240.018 215.987 240.018 307.718 C 184.665 291.556 129.625 275.488 73.088 259.281 Z" style="fill: rgb(255, 255, 255);" transform="matrix(0.9999999999999999, 0, 0, 0.9999999999999999, 0, 0)"/>
  <path opacity="1.000000" stroke="none" d="M 96.408 281.187 C 142.808 294.531 187.868 307.29 232.693 320.634 C 237.438 322.046 244.233 326.87 244.285 330.183 C 245.047 377.041 244.804 423.911 244.804 475.953 C 173.016 403.661 105.084 335.252 33.158 262.822 C 57.202 269.798 76.101 275.285 96.408 281.187 Z" style="fill: rgb(255, 0, 0);" transform="matrix(0.9999999999999999, 0, 0, 0.9999999999999999, 0, 0)"/>
  <path opacity="1.000000" stroke="none" d="M 462.756 266.058 C 426.982 304.431 390.042 342.54 352.819 380.443 C 322.91 410.898 292.653 441.102 258.801 475.194 C 258.801 449.57 258.801 428.526 258.801 407.482 C 258.801 383.393 258.256 359.287 259.249 335.226 C 259.458 330.231 264.151 322.355 268.837 320.969 C 332.833 302.015 397.196 283.972 462.756 266.058 Z" style="fill: rgb(255, 0, 0);" transform="matrix(0.9999999999999999, 0, 0, 0.9999999999999999, 0, 0)"/>
</svg>